<?xml version="1.0" encoding="utf-8"?>
<!-- Generator: Adobe Illustrator 27.2.0, SVG Export Plug-In . SVG Version: 6.00 Build 0)  -->
<svg version="1.1" id="Layer_1" focusable="false" xmlns="http://www.w3.org/2000/svg" xmlns:xlink="http://www.w3.org/1999/xlink"
	 x="0px" y="0px" viewBox="0 0 24 24" style="enable-background:new 0 0 24 24;" xml:space="preserve">
<style type="text/css">
	.st0{fill:#FFFFFF;}
</style>
<g>
	<path class="st0" d="M8,7c0,0.6-0.4,1-1,1S6,7.6,6,7s0.4-1,1-1S8,6.4,8,7z M7,16c-0.6,0-1,0.5-1,1s0.4,1,1,1s1-0.5,1-1S7.6,16,7,16
		z M10.8,8.2L21,18.4V20h-3.3L12,14.2l-1.3,1.3c0.2,0.5,0.3,1,0.3,1.5c0,2.2-1.8,4-4,4s-4-1.8-4-4s1.8-4,4-4c0.4,0,0.8,0.1,1.2,0.2
		l1.4-1.4l-1.1-1.1C8,10.9,7.5,11,7,11c-2.2,0-4-1.8-4-4s1.8-4,4-4s4,1.8,4,4C11,7.4,10.9,7.8,10.8,8.2z M10.1,8.9L9.6,8.5l0.2-0.6
		C9.9,7.6,10,7.3,10,7c0-1.7-1.4-3-3-3S4,5.3,4,7s1.3,3,3,3c0.4,0,0.7-0.1,1.1-0.2l0.6-0.2L9.2,10l1.1,1.1l0.7,0.7l-0.7,0.7
		l-1.4,1.4l-0.4,0.4l-0.6-0.2C7.6,14.1,7.3,14,7,14c-1.7,0-3,1.4-3,3s1.3,3,3,3s3-1.4,3-3c0-0.4-0.1-0.8-0.2-1.1l-0.2-0.6l0.5-0.5
		l1.3-1.3l0.7-0.7l0.7,0.7l5.5,5.5H20v-0.1L10.1,8.9z M17.7,4H21v1.6l-5.5,5.5l-2.4-2.4L17.7,4z M18.1,5l-3.7,3.7l1,1L20,5.2V5H18.1
		z"/>
</g>
</svg>
