<?xml version="1.0" encoding="utf-8"?>
<!-- Generator: Adobe Illustrator 27.2.0, SVG Export Plug-In . SVG Version: 6.00 Build 0)  -->
<svg version="1.1" id="Layer_1" focusable="false" xmlns="http://www.w3.org/2000/svg" xmlns:xlink="http://www.w3.org/1999/xlink"
	 x="0px" y="0px" viewBox="0 0 24 24" style="enable-background:new 0 0 24 24;" xml:space="preserve">
<style type="text/css">
	.st0{fill:#FFFFFF;}
</style>
<g>
	<path class="st0" d="M17,4h-1H6.6c-1.1,0-2,0.7-2.2,1.6l-1.3,6C2.8,12.9,3.8,14,5.2,14h4.2l-1.5,4.9C7.6,20,8.5,21,9.6,21
		c0.6,0,1.1-0.2,1.5-0.6L17,14h4V4H17z M10.4,19.7C10.2,19.9,9.9,20,9.6,20c-0.3,0-0.5-0.1-0.6-0.3c-0.1-0.1-0.1-0.3-0.1-0.5
		l1.5-4.9l0.4-1.3H9.5H5.2c-0.4,0-0.8-0.2-1-0.5c-0.1-0.1-0.2-0.4-0.2-0.7l1.3-6C5.5,5.3,6,5,6.6,5H16v8.6L10.4,19.7z M20,13h-3V5h3
		V13z"/>
</g>
</svg>
