<?xml version="1.0" encoding="utf-8"?>
<!-- Generator: Adobe Illustrator 27.2.0, SVG Export Plug-In . SVG Version: 6.00 Build 0)  -->
<svg version="1.1" id="Layer_1" focusable="false" xmlns="http://www.w3.org/2000/svg" xmlns:xlink="http://www.w3.org/1999/xlink"
	 x="0px" y="0px" viewBox="0 0 24 24" style="enable-background:new 0 0 24 24;" xml:space="preserve">
<style type="text/css">
	.st0{fill:#FFFFFF;}
</style>
<g>
	<path class="st0" d="M18.8,11h-4.2l1.5-4.9C16.4,5,15.5,4,14.4,4c-0.6,0-1.1,0.2-1.5,0.7L7,11H3v10h4h1h9.4c1.1,0,2-0.7,2.2-1.6
		l1.3-6C21.2,12.1,20.2,11,18.8,11z M7,20H4v-8h3V20z M20,13.2l-1.3,6C18.5,19.6,18,20,17.4,20H8v-8.6l5.6-6.1
		C13.8,5.1,14.1,5,14.4,5c0.3,0,0.5,0.1,0.6,0.3c0.1,0.1,0.1,0.3,0.1,0.5l-1.5,4.9L13.2,12h1.4h4.2c0.4,0,0.8,0.2,1,0.5
		C19.9,12.6,20,12.9,20,13.2z"/>
</g>
</svg>
