<?xml version="1.0" encoding="utf-8"?>
<!-- Generator: Adobe Illustrator 27.0.1, SVG Export Plug-In . SVG Version: 6.00 Build 0)  -->
<svg version="1.1" id="Layer_1" focusable="false" xmlns="http://www.w3.org/2000/svg" xmlns:xlink="http://www.w3.org/1999/xlink"
	 x="0px" y="0px" viewBox="0 0 90 20" style="enable-background:new 0 0 90 20;" xml:space="preserve">
<style type="text/css">
	.st0{fill:#FF0000;}
	.st1{fill:#FFFFFF;}
</style>
<g>
	<g>
		<path class="st0" d="M28,3.1c-0.3-1.2-1.3-2.2-2.5-2.5C23.2,0,14.3,0,14.3,0S5.4,0,3.1,0.6C1.9,0.9,0.9,1.9,0.6,3.1
			C0,5.4,0,10,0,10s0,4.6,0.6,6.9c0.3,1.2,1.3,2.2,2.5,2.5C5.4,20,14.3,20,14.3,20s8.9,0,11.2-0.6c1.2-0.3,2.2-1.3,2.5-2.5
			c0.6-2.2,0.6-6.9,0.6-6.9S28.6,5.4,28,3.1z"/>
		<path class="st1" d="M11.4,14.3l7.4-4.3l-7.4-4.3V14.3z"/>
	</g>
	<g>
		<g id="youtube-paths">
			<path class="st1" d="M34.6,13L31.4,1.4h2.8l1.1,5.3C35.6,8,35.8,9.1,36,10H36c0.1-0.7,0.3-1.7,0.6-3.3l1.2-5.3h2.8L37.4,13v5.6
				h-2.8L34.6,13L34.6,13z"/>
			<path class="st1" d="M41.5,18.2c-0.6-0.4-1-1-1.2-1.8c-0.2-0.8-0.4-1.9-0.4-3.2v-1.8c0-1.3,0.1-2.4,0.4-3.2
				c0.3-0.8,0.7-1.4,1.3-1.8c0.6-0.4,1.3-0.6,2.3-0.6c0.9,0,1.7,0.2,2.2,0.6c0.6,0.4,1,1,1.2,1.8c0.3,0.8,0.4,1.9,0.4,3.2v1.8
				c0,1.3-0.1,2.4-0.4,3.2c-0.3,0.8-0.7,1.4-1.2,1.8c-0.6,0.4-1.3,0.6-2.3,0.6C42.8,18.8,42,18.6,41.5,18.2z M44.6,16.2
				c0.2-0.4,0.2-1.1,0.2-2v-3.9c0-0.9-0.1-1.6-0.2-2c-0.2-0.4-0.4-0.6-0.8-0.6c-0.4,0-0.7,0.2-0.8,0.6c-0.2,0.4-0.2,1.1-0.2,2v3.9
				c0,0.9,0.1,1.6,0.2,2c0.2,0.4,0.4,0.6,0.8,0.6C44.2,16.8,44.5,16.6,44.6,16.2z"/>
			<path class="st1" d="M56.8,18.6h-2.2L54.4,17h-0.1c-0.6,1.2-1.5,1.7-2.7,1.7c-0.8,0-1.4-0.3-1.8-0.8c-0.4-0.5-0.6-1.4-0.6-2.6V6
				H52v9.2c0,0.6,0.1,1,0.2,1.2c0.1,0.2,0.3,0.4,0.6,0.4c0.2,0,0.5-0.1,0.7-0.2c0.2-0.2,0.4-0.3,0.5-0.6V6h2.8V18.6z"/>
			<path class="st1" d="M64.5,3.7h-2.8v14.9h-2.8V3.7h-2.8V1.4h8.4V3.7z"/>
			<path class="st1" d="M71.3,18.6h-2.2L68.8,17h-0.1c-0.6,1.2-1.5,1.7-2.7,1.7c-0.8,0-1.4-0.3-1.8-0.8c-0.4-0.5-0.6-1.4-0.6-2.6V6
				h2.8v9.2c0,0.6,0.1,1,0.2,1.2c0.1,0.2,0.3,0.4,0.6,0.4c0.2,0,0.5-0.1,0.7-0.2c0.2-0.2,0.4-0.3,0.5-0.6V6h2.8V18.6z"/>
			<path class="st1" d="M80.6,8c-0.2-0.8-0.4-1.4-0.8-1.7c-0.4-0.4-0.9-0.5-1.6-0.5c-0.5,0-1,0.1-1.5,0.4c-0.4,0.3-0.8,0.7-1,1.2h0
				V0.8H73v17.8h2.3l0.3-1.2h0.1c0.2,0.4,0.5,0.8,1,1c0.4,0.2,0.9,0.4,1.5,0.4c1,0,1.7-0.4,2.1-1.3c0.4-0.9,0.7-2.3,0.7-4.1v-2
				C80.9,9.9,80.8,8.8,80.6,8z M78,13.1c0,0.9,0,1.6-0.1,2.1c-0.1,0.5-0.2,0.9-0.4,1.1c-0.2,0.2-0.4,0.3-0.7,0.3
				c-0.2,0-0.4-0.1-0.6-0.2c-0.2-0.1-0.4-0.3-0.5-0.5V9c0.1-0.3,0.3-0.6,0.5-0.8c0.2-0.2,0.5-0.3,0.8-0.3c0.3,0,0.5,0.1,0.7,0.3
				c0.2,0.2,0.3,0.6,0.3,1.1C78,9.8,78,10.6,78,11.5L78,13.1L78,13.1z"/>
			<path class="st1" d="M84.9,13.9c0,0.8,0,1.4,0.1,1.8c0,0.4,0.1,0.7,0.3,0.9c0.2,0.2,0.4,0.3,0.7,0.3c0.4,0,0.7-0.2,0.9-0.5
				c0.2-0.3,0.2-0.9,0.3-1.6l2.4,0.1c0,0.1,0,0.3,0,0.4c0,1.2-0.3,2-1,2.6c-0.6,0.6-1.5,0.9-2.7,0.9c-1.4,0-2.4-0.4-2.9-1.3
				c-0.6-0.9-0.8-2.2-0.8-4v-2.2c0-1.9,0.3-3.3,0.9-4.1c0.6-0.9,1.6-1.3,3-1.3c1,0,1.7,0.2,2.2,0.5c0.5,0.4,0.9,0.9,1.1,1.7
				c0.2,0.8,0.3,1.8,0.3,3.1v2.1h-4.7V13.9z M85.2,8c-0.1,0.2-0.2,0.5-0.3,0.9c0,0.4-0.1,1-0.1,1.8v0.9h2.1v-0.9
				c0-0.8,0-1.4-0.1-1.8c-0.1-0.4-0.2-0.7-0.3-0.9c-0.1-0.2-0.4-0.3-0.7-0.3C85.6,7.7,85.4,7.8,85.2,8z"/>
		</g>
	</g>
</g>
</svg>
