<?xml version="1.0" encoding="utf-8"?>
<!-- Generator: Adobe Illustrator 27.2.0, SVG Export Plug-In . SVG Version: 6.00 Build 0)  -->
<svg version="1.1" id="Layer_1" focusable="false" xmlns="http://www.w3.org/2000/svg" xmlns:xlink="http://www.w3.org/1999/xlink"
	 x="0px" y="0px" viewBox="0 0 24 24" style="enable-background:new 0 0 24 24;" xml:space="preserve">
<style type="text/css">
	.st0{fill:#FFFFFF;}
</style>
<g>
	<path class="st0" d="M10.5,14.4V9.6l4.2,2.4L10.5,14.4z M8.5,8.4L7.8,7.8C6.7,8.8,6,10.3,6,12s0.7,3.2,1.8,4.2l0.7-0.7
		C7.6,14.6,7,13.4,7,12S7.6,9.4,8.5,8.4z M16.2,7.8l-0.7,0.7C16.4,9.4,17,10.6,17,12s-0.6,2.6-1.5,3.6l0.7,0.7
		c1.1-1.1,1.8-2.6,1.8-4.3S17.3,8.8,16.2,7.8z M5.7,5.6L4.9,4.9C3.1,6.7,2,9.2,2,12s1.1,5.3,2.9,7.1l0.7-0.7C4,16.7,3,14.5,3,12
		S4,7.3,5.7,5.6z M19,4.9l-0.7,0.7C20,7.3,21,9.5,21,12s-1,4.7-2.6,6.4l0.7,0.7c1.8-1.8,2.9-4.3,2.9-7.1S20.9,6.7,19,4.9z"/>
</g>
</svg>
